<svg xmlns="http://www.w3.org/2000/svg" width="41" height="40" viewBox="0 0 41 40" fill="none"><path d="M40.1152 20.3656C40.2527 9.32083 31.4104 0.255731 20.3656 0.118296C9.32087 -0.0191395 0.255773 8.82313 0.118338 19.8679C-0.0058694 29.8496 7.20436 38.2142 16.7462 39.8334L16.9201 25.8587L11.8424 25.7955L11.9143 20.0147L16.992 20.0779L17.0469 15.672C17.1092 10.6598 20.1294 7.92846 24.6975 7.9853C26.8854 8.01253 29.1691 8.4316 29.1691 8.4316L29.1079 13.3531L26.5862 13.3217C24.1019 13.2908 23.3079 14.8228 23.2882 16.4044L23.2415 20.1556L28.788 20.2246L27.8294 25.9944L23.1696 25.9364L22.9957 39.9111C32.5749 38.5299 39.991 30.3475 40.1152 20.3656Z" fill="#1877F2"></path></svg>