<svg xmlns="http://www.w3.org/2000/svg" width="40" height="36" viewBox="0 0 40 36" fill="none"><path d="M13.6897 4.53583C14.0722 3.53671 14.598 2.61689 15.3789 1.87151C18.5024 -1.15756 23.6658 -0.396327 25.7853 3.40984C27.3789 6.29618 29.0682 9.11909 30.7096 11.9737C33.4506 16.7156 36.2235 21.4574 38.9327 26.2151C41.2116 30.1957 38.7415 35.2231 34.2156 35.905C31.4427 36.3173 28.8451 35.0486 27.4108 32.5746C25.0044 28.4037 22.5821 24.2327 20.1757 20.0777C20.1279 19.9825 20.0642 19.9032 20.0004 19.8239C19.7455 19.6178 19.6339 19.3165 19.4745 19.0468C18.4068 17.1755 17.3072 15.32 16.2395 13.4645C15.5542 12.2592 14.8371 11.0698 14.1518 9.86447C13.5303 8.78605 13.2435 7.61248 13.2753 6.37548C13.3231 5.74112 13.4028 5.10676 13.6897 4.53583Z" fill="#3C8BD9"></path><path d="M13.6894 4.53564C13.546 5.10657 13.4185 5.67749 13.3866 6.28014C13.3388 7.6123 13.6735 8.8493 14.3428 10.007C16.0958 13.0044 17.8488 16.0176 19.5858 19.0308C19.7452 19.3004 19.8727 19.57 20.032 19.8237C19.0759 21.4731 18.1197 23.1066 17.1476 24.7559C15.8089 27.0555 14.4703 29.3709 13.1157 31.6704C13.052 31.6704 13.036 31.6387 13.0201 31.5911C13.0041 31.4643 13.052 31.3533 13.0838 31.2264C13.7372 28.8475 13.1954 26.7383 11.5539 24.9304C10.55 23.8361 9.27506 23.2176 7.80893 23.0114C5.89658 22.7418 4.20733 23.2334 2.69339 24.4229C2.42247 24.629 2.24717 24.9304 1.92845 25.0889C1.8647 25.0889 1.83283 25.0572 1.81689 25.0097C2.58183 23.6934 3.33084 22.3771 4.09578 21.0608C7.25116 15.6052 10.4065 10.1497 13.5779 4.71009C13.6097 4.64666 13.6575 4.59908 13.6894 4.53564Z" fill="#FABC04"></path><path d="M1.88065 25.057C2.18344 24.7874 2.47029 24.502 2.78902 24.2482C6.66153 21.2033 12.4783 23.4077 13.3229 28.2288C13.5301 29.3866 13.4185 30.4967 13.0679 31.6068C13.052 31.702 13.036 31.7813 13.0042 31.8764C12.8607 32.1302 12.7332 32.3998 12.5739 32.6535C11.1556 34.9848 9.0679 36.1425 6.32687 35.9681C3.18742 35.746 0.717304 33.3989 0.287025 30.2905C0.0798537 28.7839 0.382643 27.3725 1.16352 26.072C1.32288 25.7866 1.51412 25.5328 1.68942 25.2473C1.7691 25.1839 1.73722 25.057 1.88065 25.057Z" fill="#34A852"></path><path d="M1.8809 25.0571C1.81716 25.1205 1.81716 25.2315 1.7056 25.2474C1.68967 25.1364 1.75341 25.0729 1.81716 24.9937L1.8809 25.0571Z" fill="#FABC04"></path><path d="M13.0039 31.8765C12.9402 31.7655 13.0039 31.6862 13.0677 31.6069C13.0836 31.6228 13.1155 31.6545 13.1314 31.6704L13.0039 31.8765Z" fill="#E1C025"></path></svg>