<svg xmlns="http://www.w3.org/2000/svg" width="107" height="77" viewBox="0 0 107 77" fill="none"><path d="M56.1881 61.3629C57.5815 61.3168 58.9749 61.3168 60.3683 61.3629C61.4471 61.3629 62.436 62.0557 63.0428 62.9562C63.5372 63.7413 63.5597 64.7112 63.4248 65.6117C63.29 66.5123 62.6382 67.2281 61.9415 67.7361C60.6829 68.5443 59.1772 68.1748 57.7837 68.2672C57.6489 69.7681 57.7837 71.2922 57.7388 72.7931C57.2219 72.8393 56.705 72.8393 56.1881 72.7931C56.1656 68.983 56.1431 65.173 56.1881 61.3629ZM57.7613 62.9562C57.6714 64.1801 57.6489 65.427 57.7388 66.6739C58.7052 66.6739 59.6716 66.7432 60.638 66.6277C61.9415 66.1659 62.2786 64.2263 61.2223 63.3257C60.211 62.6561 58.9075 63.0486 57.7613 62.9562ZM79.4267 64.4572C79.4491 63.7413 79.3592 63.0255 79.5166 62.3328C80.011 62.3328 80.5054 62.3328 81.0224 62.3559C81.0673 63.0486 81.0223 63.7413 81.0673 64.4341C81.5842 64.7112 82.2584 64.5033 82.8652 64.5957C82.8877 65.0806 82.8877 65.5655 82.8652 66.0735C82.2584 66.0966 81.6516 66.1197 81.0673 66.189C81.0673 67.6668 81.0448 69.1447 81.0673 70.6456C81.0448 71.0381 81.2246 71.4769 81.6291 71.5692C82.0786 71.5692 82.5281 71.5692 82.9776 71.5231C83.0226 72.0311 82.9776 72.5391 82.8652 73.024C82.1461 73.0702 81.4044 73.1625 80.6852 72.9547C80.1234 72.6083 79.539 72.0772 79.5166 71.3614C79.3592 69.6527 79.5615 67.9439 79.4042 66.2352C78.9547 66.1659 78.4827 66.0966 78.0332 66.0274C78.0332 65.5655 78.0332 65.1037 78.0557 64.6419C78.5052 64.5495 78.9996 64.5957 79.4267 64.4572ZM64.7733 66.0505C66.0094 63.6721 69.9424 63.6721 71.201 66.0505C71.5606 66.8356 71.4707 67.7361 71.4932 68.5674C71.4707 69.9759 71.5156 71.3845 71.4707 72.7931C71.0662 72.8162 70.6616 72.8162 70.2571 72.7931C70.1222 72.6083 70.0099 72.4005 69.875 72.2158C68.9536 72.8162 67.8748 73.4396 66.7735 73.0471C65.1554 72.7931 63.9193 70.8996 64.6385 69.3063C65.0879 68.0825 66.3915 67.5283 67.5826 67.4359C68.4142 67.3666 69.2232 67.6668 70.0548 67.713C69.9649 66.7201 69.2457 65.7503 68.1894 65.8195C67.268 65.6579 66.5038 66.2352 65.897 66.8817C65.4475 66.6739 65.0879 66.3737 64.7733 66.0505ZM66.0543 70.4147C66.1218 71.246 66.9983 71.7078 67.7399 71.6616C68.9086 71.5692 69.8525 70.5994 69.92 69.3987C69.2907 68.8214 68.3467 68.7752 67.5601 68.8445C66.7735 68.9138 65.9644 69.5372 66.0543 70.4147ZM85.7645 65.2192C86.4836 64.7804 87.2253 64.2031 88.1467 64.2955C89.6975 64.157 91.0909 65.5655 91.0909 67.1126C91.1134 69.0061 91.0909 70.8765 91.0909 72.77C90.574 72.8162 90.0571 72.8393 89.5402 72.7931C89.4727 70.9227 89.6301 69.0523 89.4503 67.1819C89.3604 65.9812 87.922 65.6117 86.9781 65.9812C86.1465 66.3506 85.697 67.2743 85.6746 68.1748C85.6296 69.7219 85.697 71.246 85.6746 72.7931C85.1352 72.8393 84.6183 72.8393 84.0789 72.7931C84.0564 70.0683 84.0564 67.3205 84.0789 64.5957C84.5733 64.5495 85.0453 64.5495 85.5397 64.6188C85.6071 64.7343 85.7195 65.0575 85.7645 65.2192ZM93.9002 65.0344C95.406 63.8337 97.8108 64.0415 99.0693 65.5194C99.8559 66.4892 100.193 67.7592 100.036 69.0292C98.013 69.0985 95.9679 69.0292 93.9452 69.0523C93.7654 70.5763 95.2936 71.8232 96.7095 71.5692C97.5411 71.5461 98.0355 70.8072 98.5974 70.2761C99.0918 70.23 99.4964 70.5994 99.9009 70.7841C99.0918 72.8623 96.4174 73.7167 94.507 72.7007C91.6977 71.3845 91.4954 66.8817 93.9002 65.0344ZM93.9227 67.6668C95.3835 67.7361 96.8668 67.7361 98.3502 67.6668C98.2153 66.5354 97.2264 65.7272 96.1252 65.8195C95.0239 65.7503 94.2373 66.697 93.9227 67.6668ZM104.194 64.3879C104.755 64.2032 105.362 64.2955 105.947 64.3879C105.991 64.9421 106.014 65.4963 105.991 66.0505C105.407 66.0274 104.8 65.8657 104.216 66.0043C103.384 66.3506 102.823 67.1819 102.845 68.1056C102.8 69.6527 102.868 71.1767 102.845 72.7238C102.328 72.7931 101.789 72.7931 101.272 72.7469C101.249 70.0221 101.249 67.2743 101.272 64.5495C101.676 64.5033 102.103 64.5033 102.508 64.5033C102.643 64.7112 102.778 64.919 102.935 65.1268C103.362 64.8728 103.789 64.6188 104.194 64.3879ZM74.3474 65.3808C74.9318 65.0575 75.4487 64.5264 76.1454 64.5264C76.505 64.5033 76.887 64.5264 77.2466 64.5495C77.2691 65.0575 77.2691 65.5655 77.2691 66.0505C76.5724 66.1659 75.7408 65.9812 75.179 66.5123C74.7969 66.8817 74.4373 67.3667 74.4373 67.9439C74.3699 69.6065 74.4823 71.269 74.3924 72.9547C73.8979 73.0009 73.381 73.0009 72.8641 72.9778C72.8192 70.23 72.8192 67.4821 72.8641 64.7573C73.3136 64.7112 73.7406 64.7342 74.1901 64.8035C74.2126 64.919 74.3025 65.2192 74.3474 65.3808Z" fill="#606469" stroke="#5F6368" stroke-width="0.0561865" stroke-miterlimit="10"></path><path d="M37.444 7.46813C41.894 2.73444 48.3891 0.263681 54.7494 0.517684C58.4801 0.771687 62.2109 1.76461 65.4023 3.81973C66.7283 4.6741 68.0543 5.57465 69.0881 6.77539C68.0767 7.97613 66.9081 9.03833 65.8293 10.1929C64.7056 11.3244 63.6268 12.5251 62.4581 13.6104C60.6377 11.9016 58.3678 10.6085 55.8956 10.2622C53.3335 9.96198 50.6141 10.0774 48.2767 11.2782C45.6472 12.5251 43.4672 14.5571 42.0064 17.1202C41.5119 17.9746 41.1748 18.9214 40.7703 19.8219C38.1632 17.8592 35.6685 15.7348 33.084 13.7258C34.1403 11.3705 35.6236 9.24615 37.444 7.46813Z" fill="#EA4335"></path><path d="M33.1059 13.7028C35.6905 15.7117 38.1851 17.813 40.7922 19.7988C40.4101 21.7154 39.8258 23.6781 40.1854 25.664C40.2977 26.7493 40.6124 27.8115 40.7922 28.8737C38.7695 30.5131 36.7018 32.1295 34.6791 33.7921C34.1622 34.2077 33.6228 34.5772 33.0385 34.8774C31.6226 32.0141 30.8135 28.8506 30.6787 25.6409C30.5663 23.5396 30.7011 21.4152 31.1057 19.337C31.6001 17.4204 32.117 15.4577 33.1059 13.7028Z" fill="#FBBC04"></path><path d="M53.9166 19.9836C60.2544 19.9836 66.5922 19.9836 72.93 19.9836C73.7391 19.9836 74.5481 19.9143 75.3572 20.0528C76.7506 27.1418 75.2448 34.9697 70.6601 40.5578C70.1656 41.1582 69.6712 41.8278 68.997 42.2204C66.4573 40.3038 64.0526 38.2487 61.5354 36.309C63.7379 34.6234 65.4235 32.0603 65.7157 29.22C61.7602 29.1508 57.8047 29.2431 53.8492 29.1739C53.7368 26.7724 53.8492 24.3478 53.8042 21.9463C53.8267 21.2998 53.7143 20.6301 53.9166 19.9836Z" fill="#4284F4"></path><path d="M34.6797 33.8152C36.7024 32.1526 38.7701 30.5362 40.7928 28.8967C41.2872 29.8435 41.6018 30.9057 42.1862 31.8062C44.0291 34.9004 46.9508 37.1865 50.3669 38.1563C52.7492 38.6874 55.2214 38.6874 57.5812 38.1101C58.9746 37.7407 60.2557 37.0479 61.5142 36.3321C64.0314 38.2717 66.4361 40.35 68.9757 42.2434C68.3689 43.0516 67.5374 43.6058 66.7283 44.1831C62.9526 46.9309 58.2779 48.0162 53.7156 48.1317C49.1083 48.0393 44.5011 46.7 40.7029 43.9753C37.4216 41.6662 34.7696 38.5488 33.0166 34.9004C33.6234 34.6002 34.1628 34.2308 34.6797 33.8152Z" fill="#34A853"></path><path d="M3.39469 62.2404C5.01285 60.9242 7.35019 60.8318 9.23805 61.5477C9.91228 61.871 10.6764 62.2635 11.0135 63.0255C10.6989 63.395 10.3618 63.7413 9.9797 64.0415C9.44031 63.5797 8.87845 63.0948 8.20422 62.8639C6.51864 62.3559 4.51841 62.887 3.48458 64.3879C2.60808 65.427 2.56313 66.9048 2.7654 68.221C3.14747 70.253 5.17017 71.754 7.17039 71.5692C8.96835 71.5923 10.7438 70.0452 10.7438 68.1287C9.44032 68.0363 8.1368 68.1287 6.83328 68.0825C6.65348 67.6668 6.63101 67.1819 6.74338 66.7432C8.56381 66.5585 10.4292 66.6739 12.2496 66.6739C12.4519 68.3596 12.2047 70.2299 10.9461 71.4538C8.92341 73.6705 5.26007 73.6936 3.08004 71.754C0.585378 69.5834 0.293212 65.7272 2.42829 63.1641C2.72045 62.8408 3.03509 62.5175 3.39469 62.2404ZM41.0394 61.4322C41.5563 61.3399 42.0957 61.3168 42.6126 61.3629C42.6801 65.1499 42.6351 68.9368 42.6351 72.7238C42.1182 72.9085 41.5788 72.8162 41.0394 72.7931C41.0169 69.0061 41.0394 65.2192 41.0394 61.4322ZM16.4299 64.4341C17.5761 64.1801 18.8571 64.3186 19.8235 65.0344C21.7114 66.3045 22.2283 69.1678 21.0371 71.1074C20.3404 72.4698 18.7897 73.1856 17.3289 73.1856C16.34 73.0702 15.3286 72.7238 14.6319 71.9849C13.4408 70.8303 13.0587 68.9369 13.5307 67.3667C13.8678 65.9119 15.0814 64.8266 16.4299 64.4341ZM16.6321 66.0043C15.6882 66.3737 15.0589 67.2743 15.014 68.2903C14.9241 69.2832 15.1039 70.4378 15.9354 71.0612C17.2165 72.2158 19.5089 71.4769 19.9134 69.7912C20.1157 68.729 20.1382 67.3897 19.2617 66.6046C18.6549 65.8426 17.5311 65.7041 16.6321 66.0043ZM25.4646 64.4572C26.5209 64.2262 27.6896 64.2493 28.6335 64.8497C30.8585 66.0274 31.4428 69.3063 30.0269 71.3383C29.3077 72.5391 27.9143 73.1856 26.5659 73.2087C25.2848 73.1164 23.9588 72.5391 23.2396 71.4076C22.5205 70.4378 22.4081 69.1678 22.5205 67.9901C22.6778 66.3275 23.9588 64.9421 25.4646 64.4572ZM25.8242 65.9812C23.7116 66.6508 23.4419 69.976 25.1949 71.1998C26.049 71.8002 27.3749 71.8002 28.1616 71.0612C29.4426 70.0221 29.51 67.8747 28.4537 66.6508C27.802 65.8888 26.7232 65.7041 25.8242 65.9812ZM31.735 67.3436C32.162 65.6117 33.7577 64.1339 35.5556 64.3186C36.4321 64.2493 37.1289 64.8497 37.848 65.2653C37.9155 65.0344 37.9829 64.8035 38.0503 64.5726C38.5223 64.5495 38.9943 64.5495 39.4437 64.5726C39.4887 67.205 39.4437 69.8605 39.4662 72.4929C39.4887 73.786 38.9718 75.1946 37.8705 75.9104C36.9041 76.5569 35.6905 76.5569 34.5892 76.4415C33.3531 76.2568 32.3193 75.3793 31.9373 74.1554C32.3193 73.8553 32.7463 73.4858 33.2408 73.5782C33.6678 74.04 34.0274 74.5711 34.5892 74.8713C35.6006 75.3793 36.9266 74.9406 37.5783 74.0169C37.9379 73.4627 37.9155 72.77 37.9155 72.1465C37.0839 72.7007 36.14 73.3011 35.1062 73.1856C34.0723 73.024 32.9711 72.5622 32.3868 71.6154C31.5327 70.3916 31.3754 68.7752 31.735 67.3436ZM34.6342 66.0274C32.8812 66.8586 32.6564 69.5372 33.8925 70.9227C34.6342 71.6847 35.7579 71.8463 36.6794 71.3383C38.4099 70.253 38.4324 67.2743 36.7468 66.1428C36.095 65.7964 35.3309 65.7503 34.6342 66.0274ZM45.1073 65.4732C45.849 64.665 46.8828 64.2493 47.9616 64.3186C49.2875 64.2493 50.5237 65.1268 51.1979 66.2583C51.6474 67.0895 51.6923 68.0594 51.6698 69.0061C49.6696 69.2601 47.6244 69.0061 45.6017 69.1216C45.4219 70.6918 47.0626 71.9618 48.5009 71.5923C49.3325 71.5 49.782 70.761 50.2764 70.1838C50.7034 70.3685 51.108 70.5763 51.5125 70.761C51.2428 71.9618 50.0517 72.77 48.928 73.0471C47.7368 73.4165 46.4558 73.024 45.4669 72.3313C44.3881 71.5231 43.9836 70.0914 43.8487 68.7983C43.9386 67.6206 44.2308 66.3275 45.1073 65.4732ZM46.8378 66.0505C46.1411 66.3045 45.8265 67.0665 45.6242 67.7361C47.0851 67.7592 48.5459 67.7592 50.0067 67.7361C49.8494 67.2512 49.737 66.697 49.3325 66.3506C48.6583 65.7734 47.6469 65.7503 46.8378 66.0505Z" fill="#606469" stroke="#5F6368" stroke-width="0.224746" stroke-miterlimit="10"></path></svg>