<svg xmlns="http://www.w3.org/2000/svg" width="41" height="41" viewBox="0 0 41 41" fill="none"><g clip-path="url(#clip0_4866_2658)"><path d="M30.9741 0.349121H9.72412C4.54645 0.349121 0.349121 4.54645 0.349121 9.72412V30.9741C0.349121 36.1518 4.54645 40.3491 9.72412 40.3491H30.9741C36.1518 40.3491 40.3491 36.1518 40.3491 30.9741V9.72412C40.3491 4.54645 36.1518 0.349121 30.9741 0.349121Z" fill="url(#paint0_radial_4866_2658)"></path><path d="M30.9741 0.349121H9.72412C4.54645 0.349121 0.349121 4.54645 0.349121 9.72412V30.9741C0.349121 36.1518 4.54645 40.3491 9.72412 40.3491H30.9741C36.1518 40.3491 40.3491 36.1518 40.3491 30.9741V9.72412C40.3491 4.54645 36.1518 0.349121 30.9741 0.349121Z" fill="url(#paint1_radial_4866_2658)"></path><path d="M20.3505 4.72412C16.1071 4.72412 15.5744 4.74271 13.9079 4.8185C12.2444 4.89475 11.109 5.15803 10.1155 5.54443C9.08772 5.9435 8.216 6.4774 7.34756 7.34615C6.47834 8.21475 5.94443 9.08646 5.54412 10.1138C5.15662 11.1076 4.89303 12.2435 4.81818 13.9062C4.74365 15.5729 4.72412 16.1057 4.72412 20.3493C4.72412 24.5929 4.74287 25.1238 4.8185 26.7904C4.89506 28.4538 5.15834 29.5893 5.54443 30.5827C5.94381 31.6105 6.47772 32.4822 7.34647 33.3507C8.21475 34.2199 9.08646 34.7551 10.1135 35.1541C11.1077 35.5405 12.2433 35.8038 13.9065 35.8801C15.5732 35.9558 16.1054 35.9744 20.3487 35.9744C24.5926 35.9744 25.1235 35.9558 26.7901 35.8801C28.4535 35.8038 29.5902 35.5405 30.5844 35.1541C31.6118 34.7551 32.4822 34.2199 33.3504 33.3507C34.2196 32.4822 34.7533 31.6105 35.1538 30.5832C35.5379 29.5893 35.8016 28.4535 35.8797 26.7907C35.9546 25.1241 35.9741 24.5929 35.9741 20.3493C35.9741 16.1057 35.9546 15.5732 35.8797 13.9065C35.8016 12.243 35.5379 11.1077 35.1538 10.1143C34.7533 9.08646 34.2196 8.21475 33.3504 7.34615C32.4813 6.47709 31.6121 5.94318 30.5835 5.54459C29.5874 5.15803 28.4513 4.89459 26.7879 4.8185C25.1212 4.74271 24.5905 4.72412 20.3457 4.72412H20.3505ZM18.9488 7.5399C19.3649 7.53928 19.8291 7.5399 20.3505 7.5399C24.5226 7.5399 25.0169 7.5549 26.6644 7.62975C28.1879 7.69943 29.0147 7.95396 29.5655 8.16787C30.2947 8.451 30.8146 8.78959 31.3612 9.33662C31.908 9.8835 32.2465 10.4043 32.5304 11.1335C32.7443 11.6835 32.9991 12.5104 33.0685 14.0338C33.1433 15.681 33.1596 16.1757 33.1596 20.3457C33.1596 24.5157 33.1433 25.0105 33.0685 26.6576C32.9988 28.181 32.7443 29.0079 32.5304 29.558C32.2472 30.2872 31.908 30.8065 31.3612 31.353C30.8143 31.8999 30.2951 32.2383 29.5655 32.5216C29.0154 32.7365 28.1879 32.9904 26.6644 33.0601C25.0172 33.1349 24.5226 33.1512 20.3505 33.1512C16.1783 33.1512 15.6838 33.1349 14.0368 33.0601C12.5133 32.9897 11.6865 32.7352 11.1352 32.5213C10.4062 32.238 9.88521 31.8996 9.33834 31.3527C8.79146 30.8058 8.45303 30.2863 8.16912 29.5568C7.95521 29.0066 7.70037 28.1797 7.631 26.6563C7.55615 25.0091 7.54115 24.5144 7.54115 20.3418C7.54115 16.1691 7.55615 15.6771 7.631 14.0299C7.70068 12.5065 7.95521 11.6796 8.16912 11.1288C8.4524 10.3996 8.79147 9.87881 9.3385 9.33193C9.88553 8.78506 10.4062 8.44646 11.1354 8.16271C11.6862 7.94787 12.5133 7.69396 14.0368 7.62396C15.4782 7.55881 16.0368 7.53928 18.9488 7.536V7.5399ZM28.6912 10.1343C27.656 10.1343 26.8162 10.9733 26.8162 12.0087C26.8162 13.0438 27.656 13.8837 28.6912 13.8837C29.7263 13.8837 30.5662 13.0438 30.5662 12.0087C30.5662 10.9735 29.7263 10.1337 28.6912 10.1337V10.1343ZM20.3505 12.3251C15.9193 12.3251 12.3265 15.9179 12.3265 20.3493C12.3265 24.7807 15.9193 28.3718 20.3505 28.3718C24.7819 28.3718 28.3735 24.7807 28.3735 20.3493C28.3735 15.918 24.7816 12.3251 20.3502 12.3251H20.3505ZM20.3505 15.1408C23.2269 15.1408 25.559 17.4726 25.559 20.3493C25.559 23.2257 23.2269 25.5577 20.3505 25.5577C17.4741 25.5577 15.1422 23.2257 15.1422 20.3493C15.1422 17.4726 17.474 15.1408 20.3505 15.1408Z" fill="white"></path></g><defs><radialGradient id="paint0_radial_4866_2658" cx="0" cy="0" r="1" gradientUnits="userSpaceOnUse" gradientTransform="translate(10.9741 43.4299) rotate(-90) scale(39.643 36.8711)"><stop stop-color="#FFDD55"></stop><stop offset="0.1" stop-color="#FFDD55"></stop><stop offset="0.5" stop-color="#FF543E"></stop><stop offset="1" stop-color="#C837AB"></stop></radialGradient><radialGradient id="paint1_radial_4866_2658" cx="0" cy="0" r="1" gradientUnits="userSpaceOnUse" gradientTransform="translate(-6.35104 3.23053) rotate(78.681) scale(17.7206 73.045)"><stop stop-color="#3771C8"></stop><stop offset="0.128" stop-color="#3771C8"></stop><stop offset="1" stop-color="#6600FF" stop-opacity="0"></stop></radialGradient><clipPath id="clip0_4866_2658"><rect width="40" height="40" fill="white" transform="translate(0.349121 0.349121)"></rect></clipPath></defs></svg>