<svg xmlns="http://www.w3.org/2000/svg" width="202" height="44" viewBox="0 0 202 44" fill="none"><g clip-path="url(#clip0_6031_4638)"><path d="M69.1902 19.8984C66.4152 19.8984 65.0277 22.1139 64.3952 23.5633C64.0484 24.3708 63.9463 24.992 63.6607 24.992C63.2526 24.992 63.5382 24.4329 63.2118 23.2113C62.7833 21.5962 61.4774 19.8984 58.6821 19.8984C55.7643 19.8984 54.4993 22.4038 53.9075 23.7911C53.4995 24.7435 53.4995 24.992 53.1934 24.992C52.7445 24.992 53.1118 24.2466 53.3158 23.3562C53.7239 21.617 53.4178 20.2918 53.4178 20.2918H48.7861V37.9953H55.1114C55.1114 37.9953 55.1114 30.6033 55.1114 29.1953C55.1114 27.456 55.8255 25.2612 57.0498 25.2612C58.4576 25.2612 58.7433 26.3586 58.7433 28.4085C58.7433 30.272 58.7433 38.016 58.7433 38.016H65.1094C65.1094 38.016 65.1094 30.5826 65.1094 29.216C65.1094 27.6631 65.7215 25.2819 67.0682 25.2819C68.4964 25.2819 68.7617 26.8348 68.7617 28.4292C68.7617 30.0235 68.7617 38.016 68.7617 38.016H75.0053C75.0053 38.016 75.0053 30.9967 75.0053 27.601C75.0053 22.9628 73.3934 19.8984 69.1902 19.8984Z" fill="black"></path><path d="M176.658 19.8984C173.883 19.8984 172.496 22.1139 171.863 23.5633C171.516 24.3708 171.414 24.992 171.128 24.992C170.72 24.992 170.986 24.288 170.68 23.2113C170.21 21.6169 169.068 19.8984 166.15 19.8984C163.232 19.8984 161.967 22.4038 161.375 23.7911C160.967 24.7435 160.967 24.992 160.661 24.992C160.212 24.992 160.58 24.2466 160.784 23.3562C161.192 21.617 160.886 20.2918 160.886 20.2918H156.254V37.9953H162.579C162.579 37.9953 162.579 30.6033 162.579 29.1953C162.579 27.456 163.293 25.2612 164.518 25.2612C165.925 25.2612 166.211 26.3586 166.211 28.4085C166.211 30.272 166.211 38.016 166.211 38.016H172.577C172.577 38.016 172.577 30.5826 172.577 29.216C172.577 27.6631 173.189 25.2819 174.536 25.2819C175.964 25.2819 176.229 26.8348 176.229 28.4292C176.229 30.0235 176.229 38.016 176.229 38.016H182.473C182.473 38.016 182.473 30.9967 182.473 27.601C182.453 22.9628 180.861 19.8984 176.658 19.8984Z" fill="black"></path><path d="M85.8196 19.8984C80.9634 19.8984 77.4947 21.6998 77.4947 21.6998V27.0212C77.4947 27.0212 81.3307 24.7849 84.4525 24.7849C86.9418 24.7849 87.2478 26.1515 87.1254 27.2697C87.1254 27.2697 86.4113 27.0833 84.228 27.0833C79.0658 27.0833 76.4541 29.4645 76.4541 33.2744C76.4541 36.8979 79.3719 38.4094 81.8408 38.4094C85.4319 38.4094 87.0234 35.9454 87.5131 34.7859C87.86 33.9784 87.9212 33.44 88.2068 33.44C88.5537 33.44 88.4313 33.8334 88.4109 34.641C88.3905 36.049 88.4517 37.105 88.6761 38.016H93.4507V29.2988C93.4507 23.8532 91.5531 19.8984 85.8196 19.8984ZM84.2688 33.8541C82.7589 34.2061 81.9632 33.7299 81.9632 32.7153C81.9632 31.328 83.3915 30.769 85.4115 30.769C86.3093 30.769 87.1458 30.8518 87.1458 30.8518C87.1662 31.4522 85.8808 33.4814 84.2688 33.8541Z" fill="black"></path><path d="M110.202 14.9496H103.877V38.016H110.202V14.9496Z" fill="black"></path><path d="M117.18 29.1539C117.18 27.5595 118.629 26.1101 121.302 26.1101C124.219 26.1101 126.566 27.5388 127.076 27.8494V21.6998C127.076 21.6998 125.219 19.8984 120.669 19.8984C115.874 19.8984 111.875 22.7558 111.875 28.8847C111.875 35.0137 115.507 38.4094 120.649 38.4094C124.668 38.4094 127.076 36.1732 127.076 36.1732V30.3341C126.321 30.769 124.199 32.2598 121.302 32.2598C118.282 32.2391 117.18 30.8104 117.18 29.1539Z" fill="black"></path><path d="M139.931 19.8984C136.258 19.8984 134.87 23.4184 134.585 24.0395C134.299 24.6607 134.156 25.0127 133.932 24.992C133.524 24.9713 133.809 24.2466 133.973 23.7704C134.258 22.8593 134.891 20.4988 134.891 17.5793C134.891 15.6123 134.626 14.9497 134.626 14.9497H129.157V38.016H135.482C135.482 38.016 135.482 30.6447 135.482 29.216C135.482 27.7873 136.054 25.2819 137.645 25.2819C138.972 25.2819 139.38 26.2758 139.38 28.2843C139.38 30.2927 139.38 38.0367 139.38 38.0367H145.705C145.705 38.0367 145.705 32.6325 145.705 28.6777C145.705 24.081 144.97 19.8984 139.931 19.8984Z" fill="black"></path><path d="M147.767 20.3332V38.016H154.092V20.3332C154.092 20.3332 153.031 20.9751 150.929 20.9751C148.848 20.9544 147.767 20.3332 147.767 20.3332Z" fill="black"></path><path d="M150.929 19.8984C153.07 19.8984 154.805 18.7488 154.805 17.3308C154.805 15.9128 153.07 14.7633 150.929 14.7633C148.787 14.7633 147.052 15.9128 147.052 17.3308C147.052 18.7488 148.787 19.8984 150.929 19.8984Z" fill="black"></path><path d="M95.5117 20.3332V38.016H101.837V20.3332C101.837 20.3332 100.776 20.9751 98.6743 20.9751C96.5931 20.9544 95.5117 20.3332 95.5117 20.3332Z" fill="black"></path><path d="M98.6531 19.8984C100.794 19.8984 102.53 18.7488 102.53 17.3308C102.53 15.9128 100.794 14.7633 98.6531 14.7633C96.5121 14.7633 94.7764 15.9128 94.7764 17.3308C94.7764 18.7488 96.5121 19.8984 98.6531 19.8984Z" fill="black"></path><path d="M195.042 19.8984C191.778 19.8984 190.288 22.3831 189.656 23.7911C189.227 24.7228 189.248 24.992 188.941 24.992C188.493 24.992 188.86 24.2466 189.064 23.3562C189.472 21.617 189.166 20.2918 189.166 20.2918H184.534V42.8819H190.859C190.859 42.8819 190.859 39.1962 190.859 35.7177C191.614 37.0014 193.002 38.3887 195.144 38.3887C199.715 38.3887 202.02 34.4546 202.02 29.1539C202 23.1285 199.245 19.8984 195.042 19.8984ZM193.308 34.2061C191.859 34.2061 190.778 32.3426 190.778 29.7337C190.778 27.2075 191.88 25.2612 193.247 25.2612C195.001 25.2612 195.756 26.897 195.756 29.7337C195.756 32.6739 195.083 34.2061 193.308 34.2061Z" fill="black"></path><path d="M30.7268 20.7887C31.0532 20.7473 31.3389 20.7473 31.6245 20.7887C31.7878 20.416 31.8082 19.7741 31.6654 19.0701C31.4409 18.0141 31.1553 17.393 30.5635 17.4965C29.9514 17.6 29.931 18.3454 30.1555 19.4014C30.2575 19.9812 30.4819 20.4781 30.7268 20.7887Z" fill="black"></path><path d="M25.5438 21.617C25.9722 21.8033 26.2375 21.9276 26.3395 21.824C26.4007 21.7619 26.3803 21.617 26.2783 21.4513C26.0743 21.0993 25.6254 20.7473 25.1561 20.5403C24.1971 20.1261 23.0749 20.2711 22.1975 20.8923C21.9118 21.0993 21.6262 21.4099 21.667 21.5756C21.6874 21.6377 21.7282 21.6791 21.8302 21.6998C22.0751 21.7205 22.8912 21.3064 23.8502 21.2443C24.5644 21.2028 25.1153 21.4306 25.5438 21.617Z" fill="black"></path><path d="M24.6866 22.1139C24.1153 22.1967 23.8092 22.3831 23.6256 22.5694C23.4624 22.7144 23.3604 22.88 23.3604 23.0042C23.3604 23.0664 23.3808 23.0871 23.4012 23.1078C23.4216 23.1285 23.4624 23.1492 23.5032 23.1492C23.6256 23.1492 23.9113 23.025 23.9113 23.025C24.6866 22.7351 25.2171 22.7765 25.7272 22.8386C26.0129 22.88 26.1353 22.88 26.1965 22.7972C26.2169 22.7765 26.2373 22.7144 26.1761 22.6108C26.0129 22.3831 25.462 22.0311 24.6866 22.1139Z" fill="black"></path><path d="M28.9718 23.9567C29.3595 24.1431 29.7676 24.081 29.9104 23.7911C30.0532 23.5012 29.8492 23.1285 29.4615 22.9421C29.0738 22.7558 28.6658 22.8179 28.5229 23.1078C28.4005 23.3977 28.5842 23.7704 28.9718 23.9567Z" fill="black"></path><path d="M31.4199 21.7826C31.1139 21.7826 30.8486 22.1139 30.8486 22.5487C30.8486 22.9836 31.0935 23.3356 31.3995 23.3356C31.7056 23.3356 31.9709 23.0043 31.9709 22.5694C31.9709 22.1553 31.726 21.8033 31.4199 21.7826Z" fill="black"></path><path d="M10.6081 29.568C10.5265 29.4645 10.4041 29.5059 10.2817 29.5266C10.2001 29.5473 10.098 29.568 9.99602 29.568C9.77158 29.568 9.56754 29.4645 9.46552 29.2988C9.32269 29.0711 9.32269 28.7605 9.48592 28.3671C9.50632 28.3257 9.52673 28.2635 9.56754 28.2014C9.81239 27.6424 10.2409 26.6899 9.77158 25.7788C9.42471 25.0955 8.8534 24.6814 8.15966 24.5779C7.50673 24.4951 6.81299 24.7436 6.38451 25.2198C5.69077 25.9859 5.58875 27.0419 5.73158 27.3939C5.77239 27.5388 5.854 27.5595 5.91521 27.5803C6.03764 27.601 6.20087 27.5181 6.30289 27.2075C6.30289 27.1868 6.32329 27.1454 6.3437 27.104C6.38451 26.9384 6.48653 26.6485 6.62935 26.4207C6.81299 26.1308 7.07824 25.9445 7.40471 25.8824C7.73117 25.8203 8.07804 25.8824 8.3637 26.0687C8.8534 26.3793 9.03703 26.9798 8.83299 27.5596C8.73097 27.8494 8.54733 28.4085 8.58814 28.8847C8.66976 29.8165 9.24107 30.1892 9.75117 30.2306C10.2409 30.2513 10.5877 29.9614 10.6898 29.7544C10.6898 29.6715 10.649 29.5887 10.6081 29.568Z" fill="black"></path><path d="M39.2349 27.8494C39.2145 27.7873 39.092 27.3318 38.9288 26.7727C38.7656 26.2137 38.5819 25.841 38.5819 25.841C39.2553 24.8057 39.2757 23.8946 39.1737 23.377C39.0716 22.7351 38.8064 22.176 38.2759 21.617C37.7454 21.0372 36.6436 20.4574 35.1133 20.0226C34.9296 19.9812 34.3583 19.8156 34.2971 19.7949C34.2971 19.7534 34.2563 17.8692 34.2155 17.0617C34.1951 16.4819 34.1339 15.5501 33.8686 14.6598C33.5421 13.4381 32.9504 12.3614 32.2159 11.6781C34.2155 9.56615 35.4805 7.24709 35.4805 5.23862C35.4805 1.40803 30.8284 0.227792 25.0949 2.65038L23.891 3.16803C23.891 3.16803 21.7078 0.99391 21.667 0.952498C15.1377 -4.82444 -5.26636 18.2005 1.24253 23.7911L2.67082 25.0127C2.30355 25.9859 2.16072 27.104 2.28314 28.305C2.42597 29.8372 3.22173 31.328 4.48678 32.4669C5.69062 33.5436 7.28213 34.2269 8.81244 34.2269C11.3425 40.1694 17.1577 43.8137 23.9522 44.0207C31.2569 44.2485 37.3781 40.7699 39.949 34.5167C40.1122 34.0819 40.8264 32.0942 40.8264 30.3549C40.8468 28.5742 39.8674 27.8494 39.2349 27.8494ZM9.38375 32.529C9.1593 32.5704 8.93486 32.5911 8.71041 32.5704C6.50678 32.5083 4.11951 30.4998 3.89506 28.0979C3.62981 25.4683 4.95607 23.4184 7.32294 22.9421C7.6086 22.88 7.93506 22.8593 8.30233 22.88C9.6286 22.9629 11.567 23.9774 12.0159 26.897C12.4035 29.4852 11.771 32.1149 9.38375 32.529ZM6.91486 21.3685C5.44577 21.6584 4.16031 22.5073 3.36456 23.6669C2.89526 23.2734 2.01789 22.4866 1.85466 22.1967C0.61001 19.7741 3.24213 15.0532 5.0785 12.3821C9.649 5.79767 16.77 0.807557 20.0755 1.69791C20.606 1.84285 22.3811 3.93415 22.3811 3.93415C22.3811 3.93415 19.0757 5.79767 16.0151 8.38591C11.8934 11.616 8.79203 16.2956 6.91486 21.3685ZM30.053 31.5351C30.0939 31.5144 30.1347 31.4523 30.1347 31.4109C30.1347 31.3487 30.0734 31.2866 29.9918 31.3073C29.9918 31.3073 26.5435 31.825 23.2789 30.624C23.6258 29.4438 24.5848 29.8786 26.013 29.9822C28.584 30.1478 30.8896 29.7544 32.6035 29.2574C34.0726 28.8226 36.0314 27.9737 37.5209 26.7727C38.031 27.9116 38.2147 29.1539 38.2147 29.1539C38.2147 29.1539 38.6023 29.0918 38.9288 29.2781C39.2349 29.4645 39.4593 29.8786 39.3165 30.9139C38.99 32.8603 38.1739 34.4339 36.8068 35.904C35.9702 36.8151 34.95 37.6019 33.8074 38.1817C33.1953 38.513 32.5423 38.8029 31.8486 39.0306C26.6864 40.7492 21.3813 38.865 19.6878 34.8066C19.545 34.496 19.4429 34.1854 19.3409 33.8541C18.6064 31.1831 19.2389 27.9944 21.1569 25.9652C21.2793 25.841 21.4017 25.696 21.4017 25.489C21.4017 25.3233 21.2997 25.1577 21.2181 25.0334C20.5448 24.0396 18.1983 22.3417 18.6676 19.0701C19.0145 16.7097 21.0345 15.0532 22.932 15.1567C23.0953 15.1567 23.2585 15.1774 23.4013 15.1774C24.2175 15.2189 24.9316 15.3431 25.605 15.3638C26.7272 15.4052 27.7474 15.2396 28.9512 14.225C29.3593 13.873 29.6858 13.5831 30.2367 13.4796C30.2979 13.4796 30.4407 13.4174 30.7264 13.4381C31.012 13.4589 31.2977 13.5417 31.5425 13.7073C32.5015 14.3492 32.6444 15.9436 32.6852 17.0824C32.7056 17.745 32.7872 19.3393 32.828 19.7949C32.8892 20.8509 33.1545 20.9958 33.7054 21.1614C34.0114 21.265 34.2971 21.3478 34.7256 21.4513C36.011 21.824 36.766 22.176 37.2353 22.6523C37.5209 22.9421 37.6433 23.2734 37.6842 23.5633C37.827 24.6814 36.8272 26.048 34.1747 27.3111C31.2773 28.6777 27.7474 29.0297 25.3193 28.7398C25.1357 28.7191 24.4623 28.6363 24.4623 28.6363C22.524 28.3671 21.4017 30.9139 22.5648 32.6739C23.3197 33.792 25.3601 34.5374 27.4209 34.5374C32.1343 34.5374 35.7458 32.5083 37.0924 30.7483C37.1332 30.6861 37.1332 30.6861 37.1945 30.5826C37.2557 30.4791 37.2149 30.417 37.1332 30.4791C36.0314 31.2452 31.1549 34.2683 25.9314 33.3572C25.9314 33.3572 25.2989 33.2537 24.7276 33.0259C24.2583 32.8396 23.2993 32.4047 23.1973 31.3902C27.4005 32.7774 30.053 31.5351 30.053 31.5351ZM15.3213 12.3614C16.9332 10.4565 18.9328 8.82073 20.708 7.88897C20.7692 7.84756 20.8304 7.93038 20.81 7.9925C20.6672 8.26167 20.4019 8.80003 20.2999 9.23485C20.2795 9.29697 20.3611 9.35909 20.4019 9.31767C21.5037 8.55156 23.4421 7.72332 25.1357 7.61979C25.2173 7.61979 25.2377 7.70262 25.1765 7.76473C24.9112 7.97179 24.646 8.24097 24.4215 8.53085C24.3807 8.57226 24.4215 8.65509 24.4827 8.65509C25.6662 8.65509 27.3393 9.08991 28.4411 9.71109C28.5227 9.7525 28.4615 9.89744 28.3799 9.87673C26.7272 9.48332 24.0134 9.19344 21.2181 9.89744C18.7084 10.5186 16.7904 11.4711 15.4029 12.5064C15.3621 12.5064 15.2805 12.4236 15.3213 12.3614Z" fill="black"></path><path d="M71.4961 11.1812C71.4961 13.4588 73.2916 15.1153 75.5769 15.1153C77.8622 15.1153 79.6577 13.4588 79.6577 11.1812V5.9633H77.4541V10.912C77.4541 12.1337 76.6379 12.9619 75.5769 12.9619C74.5159 12.9619 73.6997 12.1337 73.6997 10.912V5.9633H71.4961V11.1812Z" fill="black"></path><path d="M85.5342 8.0546H88.1663V14.9289H90.3903V8.0546H93.0225V5.9633H85.5546L85.5342 8.0546Z" fill="black"></path><path d="M84.106 5.9633H81.9023V14.9497H84.106V5.9633Z" fill="black"></path><path d="M62.5791 8.0546H65.2112V14.9289H67.4149V8.0546H70.047V5.9633H62.5791V8.0546Z" fill="black"></path><path d="M50.9898 5.9633H48.7861V14.9497H50.9898V10.4565V5.9633Z" fill="black"></path><path d="M61.4165 9.73177C61.4165 7.45412 59.6209 5.79765 57.3357 5.79765C55.0504 5.79765 53.2549 7.45412 53.2549 9.73177V14.9497H55.4585V9.98024C55.4585 8.75859 56.2747 7.93036 57.3357 7.93036C58.3967 7.93036 59.2129 8.75859 59.2129 9.98024V14.9289H61.4165V9.73177Z" fill="black"></path></g><defs><clipPath id="clip0_6031_4638"><rect width="202" height="44" fill="white"></rect></clipPath></defs></svg>