<svg xmlns="http://www.w3.org/2000/svg" width="52" height="36" viewBox="0 0 52 36" fill="none"><path d="M15.3806 1.6665C15.3643 1.6665 15.3481 1.6665 15.3318 1.6665L15.2668 7.032C15.2831 7.032 15.2993 7.032 15.3075 7.032C18.8256 7.032 21.5556 9.81684 27.495 19.8455L27.8606 20.458L27.885 20.4988L31.2081 15.5008L31.1837 15.46C30.4037 14.186 29.6481 13.01 28.9331 11.9402C28.0962 10.6988 27.3 9.58817 26.52 8.6C22.5956 3.5775 19.305 1.6665 15.3806 1.6665Z" fill="url(#paint0_linear_4777_15210)"></path><path d="M15.3318 1.66686C11.3831 1.68319 7.89744 4.24753 5.37057 8.16753C5.36244 8.17569 5.35432 8.19202 5.34619 8.20019L9.96932 10.7237C9.97744 10.7155 9.98557 10.6992 9.99369 10.691C11.4643 8.46969 13.3006 7.04869 15.2587 7.02419C15.2749 7.02419 15.2912 7.02419 15.2993 7.02419L15.3643 1.65869C15.3643 1.66686 15.3481 1.66686 15.3318 1.66686Z" fill="url(#paint1_linear_4777_15210)"></path><path d="M5.37885 8.16748C5.37072 8.17565 5.3626 8.19198 5.35447 8.20015C3.69697 10.789 2.46197 13.9576 1.79572 17.3876C1.79572 17.404 1.7876 17.4203 1.7876 17.4285L6.9876 18.6616C6.9876 18.6453 6.99572 18.629 6.99572 18.6208C7.54822 15.6073 8.6126 12.8225 9.98572 10.7318C9.99385 10.7236 10.002 10.7073 10.0101 10.6991L5.37885 8.16748Z" fill="url(#paint2_linear_4777_15210)"></path><path d="M6.99573 18.6209L1.79573 17.3877C1.79573 17.404 1.78761 17.4204 1.78761 17.4285C1.42198 19.315 1.23511 21.226 1.23511 23.1452C1.23511 23.1615 1.23511 23.1779 1.23511 23.1942L6.56511 23.676C6.56511 23.6597 6.56511 23.6434 6.56511 23.627C6.56511 23.5127 6.56511 23.4065 6.56511 23.2922C6.56511 21.7405 6.71136 20.1889 6.98761 18.6699C6.98761 18.6454 6.98761 18.6372 6.99573 18.6209Z" fill="url(#paint3_linear_4777_15210)"></path><path d="M6.72759 25.3419C6.63009 24.7865 6.58134 24.2312 6.56509 23.6759C6.56509 23.6595 6.56509 23.6432 6.56509 23.6269L1.23509 23.145C1.23509 23.1614 1.23509 23.1777 1.23509 23.194C1.22696 24.3129 1.32446 25.4317 1.52759 26.5424C1.52759 26.5587 1.53571 26.575 1.53571 26.5832L6.73571 25.3827C6.72759 25.3745 6.72759 25.3582 6.72759 25.3419Z" fill="url(#paint4_linear_4777_15210)"></path><path d="M7.93821 28.1103C7.36134 27.4733 6.94696 26.5586 6.73571 25.3826C6.73571 25.3663 6.72759 25.35 6.72759 25.3418L1.52759 26.5423C1.52759 26.5586 1.53571 26.575 1.53571 26.5831C1.92571 28.6575 2.69759 30.3806 3.80259 31.6873C3.81071 31.6955 3.81884 31.7118 3.83509 31.72L7.97071 28.143C7.96259 28.1348 7.95446 28.1185 7.93821 28.1103Z" fill="url(#paint5_linear_4777_15210)"></path><path d="M23.343 13.2632C20.2068 18.0897 18.3137 21.1113 18.3137 21.1113C14.1374 27.6773 12.6993 29.1473 10.3755 29.1473C9.40867 29.1473 8.59617 28.8043 7.97867 28.1347C7.97055 28.1265 7.9543 28.1102 7.94617 28.102L3.81055 31.679C3.81867 31.6872 3.8268 31.7035 3.84305 31.7117C5.37055 33.492 7.51555 34.4802 10.1805 34.4802C14.2105 34.4802 17.103 32.5773 22.2543 23.545C22.2543 23.545 24.3993 19.7394 25.878 17.1179C24.9437 15.656 24.1149 14.3739 23.343 13.2632Z" fill="#0082FB"></path><path d="M28.9331 5.65186C28.925 5.66002 28.9088 5.67635 28.9006 5.68452C28.0556 6.60736 27.2594 7.57919 26.52 8.59186C27.2919 9.58002 28.0963 10.6907 28.9331 11.9402C29.9163 10.413 30.8344 9.17985 31.7363 8.23252C31.7444 8.22435 31.7606 8.20802 31.7688 8.19986L28.9331 5.65186Z" fill="url(#paint6_linear_4777_15210)"></path><path d="M44.1431 5.17817C41.9575 2.965 39.3494 1.6665 36.5706 1.6665C33.6375 1.6665 31.1594 3.2835 28.9331 5.65184C28.925 5.66 28.9088 5.67634 28.9006 5.6845L31.7363 8.22434C31.7444 8.21617 31.7606 8.19984 31.7688 8.19167C33.2394 6.65634 34.6613 5.89684 36.2294 5.89684C37.9275 5.89684 39.5119 6.69717 40.885 8.10184C40.8931 8.11 40.9094 8.12634 40.9175 8.1345L44.1756 5.21084C44.1675 5.20267 44.1513 5.1945 44.1431 5.17817Z" fill="#0082FB"></path><path d="M50.4563 22.4426C50.3345 15.3294 47.8563 8.96756 44.1676 5.21089C44.1595 5.20272 44.1432 5.18639 44.1351 5.17822L40.877 8.10189C40.8851 8.11006 40.9013 8.12639 40.9095 8.13456C43.6801 10.9929 45.5813 16.3012 45.752 22.4426C45.752 22.4589 45.752 22.4752 45.752 22.4916H50.4563C50.4645 22.4752 50.4563 22.4589 50.4563 22.4426Z" fill="url(#paint7_linear_4777_15210)"></path><path d="M50.4643 22.4919C50.4643 22.4755 50.4643 22.4592 50.4643 22.4429H45.7599C45.7599 22.4592 45.7599 22.4755 45.7599 22.4919C45.768 22.7777 45.768 23.0717 45.768 23.3575C45.768 25.0317 45.5162 26.3874 45.0124 27.3592C45.0043 27.3755 44.9962 27.3919 44.988 27.4L48.4899 31.0587C48.498 31.0424 48.5062 31.0342 48.5143 31.0179C49.7899 29.0497 50.4562 26.3139 50.4562 22.99C50.4643 22.8267 50.4643 22.6552 50.4643 22.4919Z" fill="url(#paint8_linear_4777_15210)"></path><path d="M45.0124 27.3589C45.0043 27.3752 44.9962 27.3916 44.988 27.3997C44.5493 28.2246 43.9237 28.7717 43.103 29.0086L44.7037 34.0637C44.9149 33.9902 45.118 33.9086 45.3212 33.8187C45.378 33.7942 45.443 33.7616 45.4999 33.7371C45.5324 33.7207 45.5649 33.7044 45.5974 33.6881C46.6618 33.1491 47.5799 32.3569 48.2705 31.3769C48.3112 31.3116 48.3599 31.2544 48.4005 31.1891C48.433 31.1482 48.4574 31.0992 48.4899 31.0584C48.498 31.0421 48.5062 31.0339 48.5143 31.0176L45.0124 27.3589Z" fill="url(#paint9_linear_4777_15210)"></path><path d="M42.0957 29.1555C41.5919 29.1636 41.0882 29.0656 40.6251 28.8696L38.9919 34.0473C39.9101 34.3658 40.8932 34.5046 41.9901 34.5046C42.9326 34.5128 43.8669 34.3658 44.7607 34.0636L43.1601 29.0085C42.8107 29.1065 42.4532 29.1555 42.0957 29.1555Z" fill="url(#paint10_linear_4777_15210)"></path><path d="M38.8212 27.3837C38.8131 27.3756 38.805 27.3592 38.7887 27.3511L35.0269 31.2792C35.035 31.2874 35.0512 31.3037 35.0594 31.3119C36.3675 32.7084 37.6187 33.5822 39.0325 34.0559L40.6656 28.8864C40.0725 28.6251 39.4875 28.1596 38.8212 27.3837Z" fill="url(#paint11_linear_4777_15210)"></path><path d="M38.7888 27.351C37.6594 26.0361 36.2619 23.8393 34.0682 20.295L31.2 15.493L31.1757 15.4521L27.8525 20.4501L27.8769 20.491L29.9082 23.9128C31.8744 27.2121 33.475 29.605 35.0269 31.271C35.035 31.2791 35.0513 31.2955 35.0594 31.3036L38.8213 27.3755C38.8132 27.3755 38.7969 27.3591 38.7888 27.351Z" fill="url(#paint12_linear_4777_15210)"></path><defs><linearGradient id="paint0_linear_4777_15210" x1="28.9799" y1="18.4748" x2="17.9022" y2="4.0106" gradientUnits="userSpaceOnUse"><stop offset="0.0006" stop-color="#0867DF"></stop><stop offset="0.4539" stop-color="#0668E1"></stop><stop offset="0.8591" stop-color="#0064E0"></stop></linearGradient><linearGradient id="paint1_linear_4777_15210" x1="7.53122" y1="9.07598" x2="15.1114" y2="3.34164" gradientUnits="userSpaceOnUse"><stop offset="0.1323" stop-color="#0064DF"></stop><stop offset="0.9988" stop-color="#0064E0"></stop></linearGradient><linearGradient id="paint2_linear_4777_15210" x1="4.32358" y1="17.5227" x2="7.37507" y2="9.86848" gradientUnits="userSpaceOnUse"><stop offset="0.0147" stop-color="#0072EC"></stop><stop offset="0.6881" stop-color="#0064DF"></stop></linearGradient><linearGradient id="paint3_linear_4777_15210" x1="3.9103" y1="23.0569" x2="4.26371" y2="18.3778" gradientUnits="userSpaceOnUse"><stop offset="0.0731" stop-color="#007CF6"></stop><stop offset="0.9943" stop-color="#0072EC"></stop></linearGradient><linearGradient id="paint4_linear_4777_15210" x1="4.10294" y1="25.5983" x2="3.85017" y2="23.7238" gradientUnits="userSpaceOnUse"><stop offset="0.0731" stop-color="#007FF9"></stop><stop offset="1" stop-color="#007CF6"></stop></linearGradient><linearGradient id="paint5_linear_4777_15210" x1="3.95685" y1="26.0898" x2="5.53028" y2="29.4153" gradientUnits="userSpaceOnUse"><stop offset="0.0731" stop-color="#007FF9"></stop><stop offset="1" stop-color="#0082FB"></stop></linearGradient><linearGradient id="paint6_linear_4777_15210" x1="28.001" y1="9.98096" x2="30.0787" y2="7.11749" gradientUnits="userSpaceOnUse"><stop offset="0.2799" stop-color="#007FF8"></stop><stop offset="0.9141" stop-color="#0082FB"></stop></linearGradient><linearGradient id="paint7_linear_4777_15210" x1="43.7268" y1="6.25798" x2="48.0818" y2="22.2221" gradientUnits="userSpaceOnUse"><stop stop-color="#0082FB"></stop><stop offset="0.9995" stop-color="#0081FA"></stop></linearGradient><linearGradient id="paint8_linear_4777_15210" x1="49.0891" y1="22.8403" x2="46.3356" y2="28.3853" gradientUnits="userSpaceOnUse"><stop offset="0.0619" stop-color="#0081FA"></stop><stop offset="1" stop-color="#0080F9"></stop></linearGradient><linearGradient id="paint9_linear_4777_15210" x1="44.1802" y1="31.3401" x2="46.7454" y2="29.5991" gradientUnits="userSpaceOnUse"><stop stop-color="#027AF3"></stop><stop offset="1" stop-color="#0080F9"></stop></linearGradient><linearGradient id="paint10_linear_4777_15210" x1="40.1651" y1="31.6807" x2="43.7219" y2="31.6807" gradientUnits="userSpaceOnUse"><stop stop-color="#0377EF"></stop><stop offset="0.9994" stop-color="#0279F1"></stop></linearGradient><linearGradient id="paint11_linear_4777_15210" x1="37.0738" y1="29.7137" x2="39.6354" y2="31.2154" gradientUnits="userSpaceOnUse"><stop offset="0.0019" stop-color="#0471E9"></stop><stop offset="1" stop-color="#0377EF"></stop></linearGradient><linearGradient id="paint12_linear_4777_15210" x1="29.2794" y1="18.5781" x2="37.5061" y2="28.8848" gradientUnits="userSpaceOnUse"><stop offset="0.2765" stop-color="#0867DF"></stop><stop offset="1" stop-color="#0471E9"></stop></linearGradient></defs></svg>