<svg xmlns="http://www.w3.org/2000/svg" width="116" height="45" viewBox="0 0 116 45" fill="none"><mask id="mask0_6031_4629" style="mask-type:luminance" maskUnits="userSpaceOnUse" x="0" y="0" width="116" height="45"><path d="M115.509 0.474487H0.489258V44.7394H115.509V0.474487Z" fill="white"></path></mask><g mask="url(#mask0_6031_4629)"><path d="M92.8361 26.1115L94.7057 25.6838C94.7767 25.6601 94.8241 25.6601 94.8951 25.6363C95.9601 25.3512 96.6227 24.2582 96.3624 23.189L96.3387 23.1653C96.2677 22.9277 96.1731 22.6663 96.0311 22.4762C95.8181 22.2149 95.5577 22.001 95.2737 21.811C94.9187 21.6209 94.5637 21.4546 94.1851 21.312L92.1497 20.5517C91.0137 20.124 89.8541 19.7201 88.6944 19.3162C87.9371 19.0548 87.2981 18.8172 86.7537 18.6271C86.6591 18.6034 86.5407 18.5558 86.4461 18.5321C85.7834 18.3182 85.3101 18.247 84.9077 18.247C84.6474 18.247 84.3871 18.2945 84.1267 18.3895C83.8664 18.5083 83.6297 18.6746 83.4404 18.8647C83.3457 18.9598 83.2511 19.0786 83.1801 19.1974C83.0144 19.435 82.8961 19.7201 82.8014 19.9814C82.4227 21.0982 82.2334 22.2862 82.2334 23.4742C82.2334 24.5434 82.2807 25.9214 82.8724 26.8718C83.0144 27.1094 83.2037 27.3233 83.4167 27.4658C83.8427 27.751 84.2687 27.7985 84.6947 27.8222C85.3337 27.8698 85.9727 27.7034 86.6117 27.5609L92.8361 26.1115ZM113.615 16.1798C113.095 15.1106 112.432 14.1365 111.604 13.2811C111.485 13.1861 111.391 13.0673 111.249 12.996C111.13 12.901 111.012 12.8297 110.894 12.7584C110.775 12.6871 110.633 12.6396 110.515 12.5683C110.255 12.4733 109.971 12.4258 109.687 12.4258C109.426 12.4495 109.166 12.5208 108.929 12.6396C108.574 12.8297 108.196 13.1148 107.675 13.59C107.604 13.6613 107.509 13.7326 107.438 13.8038C107.012 14.2078 106.539 14.7067 105.995 15.277C105.143 16.1561 104.291 17.0352 103.439 17.9143L101.924 19.4825C101.64 19.7676 101.403 20.0765 101.167 20.4091C100.977 20.6942 100.835 21.0031 100.764 21.3358C100.717 21.5971 100.717 21.8585 100.788 22.0961L100.812 22.1198C101.048 23.2128 102.113 23.9018 103.202 23.688C103.273 23.6642 103.344 23.6642 103.391 23.6405L111.438 21.7634C112.077 21.6209 112.716 21.4783 113.284 21.1457C113.663 20.9318 114.041 20.6942 114.278 20.2428C114.42 20.0052 114.491 19.7201 114.515 19.4587C114.633 18.3895 114.065 17.154 113.615 16.1798ZM99.2024 19.5775C99.7941 18.841 99.7941 17.748 99.8414 16.8451C100.007 13.8514 100.196 10.8576 100.338 7.84008C100.409 6.72336 100.528 5.58288 100.457 4.4424C100.386 3.492 100.386 2.4228 99.7941 1.63872C98.7527 0.284402 96.5044 0.403203 94.9897 0.593283C94.5164 0.664563 94.0431 0.735843 93.5934 0.854643C93.1201 0.973443 92.6704 1.09224 92.2207 1.2348C90.7534 1.71 88.6944 2.58912 88.3394 4.27608C88.1501 5.25024 88.5997 6.2244 88.9784 7.07976C89.4044 8.14896 90.0197 9.09936 90.5641 10.0973C91.9841 12.7584 93.4514 15.372 94.9187 17.9856C95.3684 18.7697 95.8417 19.7438 96.6701 20.1478C96.7411 20.1715 96.7884 20.1953 96.8357 20.219C97.2144 20.3616 97.6404 20.3854 98.0191 20.2903L98.0901 20.2666C98.4451 20.1715 98.7764 19.9577 99.0367 19.6963C99.1077 19.6726 99.1551 19.625 99.2024 19.5775ZM98.4924 27.6084C98.0191 26.9431 97.1907 26.658 96.4097 26.9194C96.3151 26.9431 96.2441 26.9906 96.1494 27.0144C96.0074 27.0857 95.8891 27.157 95.7944 27.252C95.4631 27.4896 95.1791 27.8222 94.9187 28.1549C94.8477 28.2262 94.8004 28.345 94.7057 28.4162L93.4041 30.1982C92.6704 31.1962 91.9367 32.1941 91.2267 33.2158C90.7534 33.881 90.3511 34.4275 90.0197 34.9265C89.9487 35.0215 89.9014 35.1403 89.8304 35.2116C89.4517 35.8056 89.2387 36.2333 89.1204 36.6134C89.0494 36.8748 89.0021 37.1599 89.0494 37.4213C89.0731 37.7064 89.1677 37.9678 89.3097 38.2054C89.3807 38.3242 89.4754 38.443 89.5701 38.5618C89.7594 38.7756 89.9724 38.9894 90.2327 39.1558C91.1321 39.7735 92.1024 40.225 93.1437 40.5814C93.9957 40.8665 94.8951 41.0328 95.7944 41.0803C95.9601 41.0803 96.1021 41.0803 96.2677 41.0803C96.4097 41.0566 96.5517 41.0566 96.6937 41.009C96.8357 40.9853 96.9777 40.9378 97.0961 40.8902C97.6167 40.7002 98.0427 40.2962 98.2321 39.7735C98.3741 39.3934 98.4687 38.9182 98.5397 38.2054C98.5397 38.1103 98.5634 37.9915 98.5634 37.8727C98.6107 37.2787 98.6344 36.5897 98.6817 35.7818C98.7527 34.5463 98.8001 33.3108 98.8237 32.0515L98.8947 29.8418C98.9184 29.3191 98.8947 28.7726 98.7527 28.2499C98.7291 28.0361 98.6344 27.8222 98.4924 27.6084ZM113.118 31.0536C112.858 30.7447 112.456 30.4596 111.864 30.1032C111.769 30.0557 111.675 29.9844 111.58 29.9369C111.083 29.628 110.468 29.3191 109.758 28.939C108.669 28.345 107.58 27.751 106.492 27.1807L104.551 26.159C104.456 26.1353 104.338 26.064 104.243 26.0165C103.865 25.8264 103.462 25.6838 103.06 25.5888C102.918 25.565 102.776 25.5413 102.634 25.5413C102.539 25.5413 102.445 25.5413 102.35 25.565C101.545 25.6838 100.93 26.3016 100.788 27.1094C100.764 27.347 100.764 27.6084 100.812 27.846C100.906 28.3687 101.143 28.8677 101.38 29.3191L102.421 31.2674C102.989 32.3842 103.581 33.4534 104.172 34.5463C104.551 35.2591 104.882 35.8531 105.19 36.3758C105.237 36.4709 105.308 36.5659 105.356 36.661C105.711 37.2787 106.018 37.6589 106.326 37.9202C106.515 38.1103 106.752 38.2529 106.989 38.3479C107.249 38.443 107.533 38.4667 107.817 38.443C107.959 38.4192 108.101 38.3954 108.243 38.3717C108.385 38.3242 108.527 38.3004 108.645 38.2529C108.787 38.1816 108.929 38.1341 109.048 38.0628C109.852 37.6114 110.562 37.0649 111.201 36.4471C111.982 35.6868 112.669 34.8552 113.189 33.881C113.26 33.7385 113.331 33.5959 113.379 33.4534C113.426 33.3108 113.473 33.192 113.521 33.0494C113.544 32.9069 113.568 32.7643 113.592 32.6218C113.615 32.3366 113.592 32.0515 113.497 31.7902C113.45 31.4813 113.308 31.2437 113.118 31.0536Z" fill="#FF1A1A"></path></g><mask id="mask1_6031_4629" style="mask-type:luminance" maskUnits="userSpaceOnUse" x="0" y="0" width="116" height="45"><path d="M115.509 0.474487H0.489258V44.7394H115.509V0.474487Z" fill="white"></path></mask><g mask="url(#mask1_6031_4629)"><path fill-rule="evenodd" clip-rule="evenodd" d="M46.2839 12.0931C46.2839 10.4775 47.5856 9.17065 49.1713 9.17065C50.7333 9.17065 51.9876 10.4775 52.0586 12.1169V34.9027C52.0586 36.5184 50.7569 37.8252 49.1713 37.8252C47.5856 37.8252 46.2839 36.5184 46.2839 34.9027V12.0931ZM43.6096 26.1591C43.5859 26.6105 43.4676 27.4421 42.8996 28.0599C42.2606 28.7251 41.4086 28.8677 40.9116 28.8677C38.8526 28.8915 36.7936 28.8915 34.7346 28.8915C32.6756 28.8915 30.6166 28.8915 28.5576 28.9152C28.7469 29.4855 29.1019 30.3408 29.9066 31.1249C30.4036 31.6001 30.8769 31.8615 31.0662 31.9803C31.3029 32.1466 32.1786 32.598 33.2199 32.598C34.3322 32.598 35.3262 32.2416 36.2966 31.7427L36.3676 31.6951C37.0539 31.3387 37.7402 30.9823 38.4739 30.8635C39.1839 30.7447 39.9649 30.8873 40.5329 31.3863C41.2192 31.9803 41.4796 32.8356 41.2192 33.7147C40.9352 34.7127 40.1069 35.568 39.2076 36.0907C38.7106 36.3759 38.1662 36.6372 37.6219 36.8273C36.2256 37.3263 34.7583 37.5639 33.2909 37.5163C32.9359 37.5163 32.5572 37.5163 32.1786 37.4688C31.7762 37.4213 31.3739 37.35 30.9716 37.2312C30.3562 37.0887 29.7409 36.8986 29.1729 36.6135C28.6049 36.3521 28.0606 36.0432 27.5399 35.6868C27.0192 35.3067 26.5459 34.9027 26.0962 34.4275C25.6466 33.9761 25.2679 33.4534 24.9129 32.9307C23.7059 31.0774 23.1379 28.7964 23.2326 26.563C23.3272 24.4008 24.0372 22.2149 25.3626 20.4567C25.5046 20.2428 25.6466 20.0527 25.8122 19.8627C25.8832 19.7914 25.9542 19.7201 26.0016 19.6251C27.6109 17.653 29.7646 17.0352 30.6639 16.7739L30.7112 16.7501C32.5099 16.2274 34.4269 16.2274 36.2256 16.7501C36.6516 16.8689 39.0656 17.6055 40.9352 19.6251C41.0299 19.7201 41.2666 20.0052 41.5979 20.4329C42.4026 21.5259 42.9943 22.7614 43.3256 24.0682C43.4912 24.6622 43.6096 25.3275 43.6096 26.1591ZM30.4036 22.4287C29.5279 23.1653 28.8889 24.1632 28.6522 25.2799H38.4502C38.1899 24.1632 37.5746 23.1415 36.6752 22.4287C35.7759 21.7159 34.6872 21.312 33.5276 21.312C33.1252 21.312 31.7289 21.3833 30.4036 22.4287ZM67.7023 16.4412C65.1226 16.4412 62.8033 17.5817 61.1229 19.4587V19.4112C61.0283 15.5859 55.2773 15.7284 55.3956 19.5775V41.3417C55.3956 42.9336 56.6736 44.2404 58.2829 44.2404C59.8686 44.2404 61.1466 42.9574 61.1466 41.3417V34.5463C62.8032 36.3996 65.1226 37.5876 67.7023 37.5876C72.8379 37.5876 77.0269 32.9069 77.0269 27.0619C77.0269 21.1932 72.8379 16.4412 67.7023 16.4412ZM66.4243 32.8119C63.5133 32.8119 61.1229 30.2458 61.1229 27.0619C61.1229 23.8543 63.4896 21.2883 66.4243 21.2883C69.3589 21.2883 71.7256 23.8543 71.7256 27.0619C71.7256 30.2695 69.3589 32.8119 66.4243 32.8119ZM18.9726 28.5351L18.0259 30.6259C17.5999 31.5288 17.1739 32.4555 16.7716 33.3821C16.6296 33.6672 16.5112 33.9523 16.3929 34.2375C14.5942 38.2529 12.4642 43.0287 7.80191 44.0266C5.55358 44.5255 2.14558 43.8365 0.891243 41.7219C-0.36309 39.5597 1.50658 37.0887 3.89691 37.6589C4.27558 37.7302 4.65424 37.9203 5.03291 38.1103C5.67191 38.4192 6.28724 38.7519 6.99724 38.6093C7.63624 38.4905 8.06224 38.0153 8.55924 37.4213C9.10358 36.756 9.50591 35.9957 9.71891 35.1641C9.69524 35.1403 9.69524 35.1166 9.69524 35.0928C9.67158 35.0691 9.67158 35.0453 9.64791 35.0215C9.05624 33.9286 8.55924 32.9307 8.13324 32.1228C7.84924 31.6001 7.61258 31.1249 7.39958 30.7447L6.42924 28.8915C5.71924 27.5134 5.60091 27.2995 5.26958 26.7055C4.58324 25.375 3.84958 24.0682 3.06858 22.7851C2.24024 21.3833 1.38824 19.8151 2.07458 18.1519C2.61891 16.8214 4.08624 16.1323 5.43524 16.5838C6.87891 17.0115 7.51791 18.4133 8.13324 19.6963C8.22791 19.9339 8.34624 20.1715 8.46458 20.3854C9.43491 22.3099 10.3816 24.2345 11.3282 26.1591C11.3992 26.3491 11.5412 26.6105 11.7069 26.9194C11.8489 27.2045 12.0146 27.5371 12.1802 27.8935C12.2749 28.0836 12.3459 28.2499 12.4406 28.4163C12.5352 28.6063 12.6299 28.7964 12.6772 28.939C13.1269 27.846 13.5529 26.7531 14.0026 25.6601C14.4522 24.5671 14.9019 23.4742 15.3279 22.3812C15.3279 22.3099 15.4462 22.0961 15.5882 21.7397C15.8249 21.217 16.0616 20.6943 16.2746 20.1715C16.8662 18.7459 17.5526 17.0352 19.1146 16.56C20.2506 16.2274 21.4576 16.6551 22.1439 17.6292C22.4989 18.1044 22.6172 18.6509 22.6409 19.1974C22.6646 20.4091 22.0729 21.6922 21.5759 22.7851C21.4576 23.0465 21.3392 23.3079 21.2446 23.5692L21.1736 23.7118C21.0316 24.0207 20.6529 24.8523 20.0139 26.2541C19.7772 26.7531 19.5642 27.252 19.3276 27.751C19.2329 27.9886 19.0909 28.2737 18.9726 28.5351Z" fill="black"></path></g></svg>